<?xml version="1.0" standalone="no"?>
<!DOCTYPE svg PUBLIC "-//W3C//DTD SVG 20010904//EN"
 "http://www.w3.org/TR/2001/REC-SVG-20010904/DTD/svg10.dtd">
<svg version="1.0" xmlns="http://www.w3.org/2000/svg"
 width="216.000000pt" height="216.000000pt" viewBox="0 0 216.000000 216.000000"
 preserveAspectRatio="xMidYMid meet">
<metadata>
Created by potrace 1.11, written by Peter Selinger 2001-2013
</metadata>
<g transform="translate(0.000000,216.000000) scale(0.100000,-0.100000)"
fill="#000000" stroke="none">
<path d="M370 1590 l0 -231 118 3 117 3 3 88 3 87 83 0 c104 0 110 -5 115
-113 6 -135 3 -139 -177 -273 -86 -64 -174 -133 -195 -153 -72 -68 -72 -65
-75 -368 l-3 -273 335 0 336 0 0 230 0 230 -110 0 -110 0 0 -90 0 -90 -100 0
-100 0 0 99 c0 82 3 102 19 123 11 14 83 70 159 126 243 177 252 194 252 477
0 174 -1 183 -25 232 -26 51 -72 91 -128 112 -16 6 -72 11 -126 11 -92 0 -99
-1 -122 -26 l-24 -26 -5 24 c-6 22 -10 23 -123 26 l-117 3 0 -231z"/>
<path d="M1438 1718 c-26 -57 -114 -253 -197 -436 l-151 -333 0 -84 0 -85 225
0 225 0 0 -70 0 -70 -40 0 -40 0 0 -140 0 -140 200 0 201 0 -3 138 -3 137 -37
3 -38 3 0 69 0 69 58 3 57 3 3 88 3 87 -61 0 -60 0 0 430 0 430 -148 0 -148 0
-46 -102z m102 -528 l0 -230 -95 0 c-52 0 -95 3 -95 8 0 8 184 452 188 452 1
0 2 -103 2 -230z"/>
</g>
</svg>
