<?xml version="1.0" standalone="no"?>
<!DOCTYPE svg PUBLIC "-//W3C//DTD SVG 20010904//EN"
 "http://www.w3.org/TR/2001/REC-SVG-20010904/DTD/svg10.dtd">
<svg version="1.0" xmlns="http://www.w3.org/2000/svg"
 width="512.000000pt" height="512.000000pt" viewBox="0 0 512.000000 512.000000"
 preserveAspectRatio="xMidYMid meet">
<metadata>
Created by potrace 1.11, written by Peter Selinger 2001-2013
</metadata>
<g transform="translate(0.000000,512.000000) scale(0.100000,-0.100000)"
fill="#000000" stroke="none">
<path d="M0 2560 l0 -2560 2560 0 2560 0 0 2560 0 2560 -2560 0 -2560 0 0
-2560z m1825 1391 c282 -73 448 -276 447 -545 -1 -149 -44 -260 -160 -416
-128 -172 -325 -336 -647 -538 -104 -65 -190 -125 -190 -133 0 -12 53 -14 330
-17 214 -1 349 2 384 9 75 15 126 69 185 193 37 78 51 97 72 102 41 10 78 -7
82 -38 2 -14 -16 -102 -38 -194 -31 -127 -43 -197 -47 -281 l-6 -113 -711 0
c-554 0 -716 3 -729 13 -9 6 -21 26 -26 42 -18 63 -1 82 254 291 303 249 428
358 537 471 205 214 278 366 278 582 0 296 -98 443 -306 458 -218 17 -419
-108 -417 -259 0 -26 8 -59 17 -72 17 -26 69 -46 122 -46 44 0 79 -32 94 -84
15 -55 9 -84 -27 -127 -35 -41 -79 -59 -149 -59 -85 0 -133 18 -186 71 -56 56
-78 119 -78 224 0 261 198 438 545 489 73 11 292 -3 370 -23z m2155 -804 c4
-721 7 -829 20 -837 8 -5 83 -10 166 -10 188 0 189 0 189 -125 0 -125 0 -125
-195 -125 -108 0 -160 -4 -168 -12 -9 -9 -12 -121 -12 -444 l0 -432 -22 -6
c-49 -15 -235 -18 -306 -6 l-72 12 0 428 c0 376 -2 430 -16 444 -14 14 -72 16
-493 16 -466 0 -478 0 -496 20 -27 30 -33 122 -10 157 18 27 1090 1446 1248
1651 l79 103 42 -3 41 -3 5 -828z"/>
<path d="M3495 3181 c-44 -58 -174 -236 -289 -396 -115 -159 -242 -334 -283
-387 l-74 -98 360 0 361 0 5 23 c3 12 4 234 3 493 l-3 472 -80 -107z"/>
</g>
</svg>
